# xmcd
#
# Track frame offsets:
#	150
#	12486
#	28003
#	41867
#	58917
#	76645
#	88991
#	102918
#	128180
#	146200
#	163308
#	183694
#	195856
#	216085
#
# Disc length: 3120 seconds
#
# Revision: 2
# Processed by: cddbd v1.5.2PL0 Copyright (c) Steve Scherf et al.
# Submitted via: EasyCDDAExtractor 11.1.0.1
#
DISCID=cc0c2e0e
DTITLE=Lil' Ed And The Blues Imperials - Jump Start
DYEAR=2012
DGENRE=Blues
TTITLE0=If You Were Mine
TTITLE1=Musical Mechanical Electrical Man
TTITLE2=Kick Me To The Curb
TTITLE3=You Burnt Me
TTITLE4=House Of Cards
TTITLE5=Born Loser
TTITLE6=Jump Right In
TTITLE7=Life Is A Journey
TTITLE8=World Of Love
TTITLE9=Weatherman
TTITLE10=If You Change Your Mind
TTITLE11=No Fast Food
TTITLE12=My Chains Are Gone
TTITLE13=Moratorium On Hate
EXTD=YEAR: 2012
EXTT0=
EXTT1=
EXTT2=
EXTT3=
EXTT4=
EXTT5=
EXTT6=
EXTT7=
EXTT8=
EXTT9=
EXTT10=
EXTT11=
EXTT12=
EXTT13=
PLAYORDER=
